Coordinates
version=1
nRows=13
nColumns=36
inDegrees=yes

Units are S.I. units (second, meters, Newtons, ...)
If the header above contains a line with 'inDegrees', this indicates whether rotational values are in degrees (yes) or radians (no).

endheader
time	pelvis_tilt	pelvis_list	pelvis_rotation	pelvis_tx	pelvis_ty	pelvis_tz	hip_flexion_r	hip_adduction_r	hip_rotation_r	knee_angle_r	knee_angle_r_beta	ankle_angle_r	subtalar_angle_r	mtp_angle_r	hip_flexion_l	hip_adduction_l	hip_rotation_l	knee_angle_l	knee_angle_l_beta	ankle_angle_l	subtalar_angle_l	mtp_angle_l	lumbar_extension	lumbar_bending	lumbar_rotation	arm_flex_r	arm_add_r	arm_rot_r	elbow_flex_r	pro_sup_r	arm_flex_l	arm_add_l	arm_rot_l	elbow_flex_l	pro_sup_l
      2.68333330	     -2.99800526	     -1.92387393	    -15.27800007	      1.54122392	      0.91156133	      0.15364916	      1.21472538	     11.43781609	     14.60463381	      6.34261080	      0.11069944	      5.99523059	    -12.30999949	     -7.49999987	     44.85206843	    -10.21358159	     -1.92321202	     19.10099661	      0.33337528	      8.79674186	     -1.10369013	     -7.49999987	     -5.55860894	      7.33859834	      1.43635408	     34.36533044	     -0.28602369	     67.21122644	    123.84863447	     95.14855868	     44.96032569	      4.44425385	     66.31739039	    123.06652140	    103.48788277
      2.70000000	     -3.23562221	     -1.60785699	    -15.45576678	      1.54143803	      0.91061892	      0.15435818	      1.98687924	     11.43812758	     14.55007353	      7.05046680	      0.12305386	      5.77765884	    -13.01205455	     -7.49999987	     45.94353315	    -10.22513776	     -2.38835767	     19.76821477	      0.34502044	      8.56200545	     -0.45873575	     -7.49999987	     -5.32336912	      6.81266727	      1.77996389	     34.21255602	     -0.27645943	     66.92241159	    123.63429856	     97.62551753	     45.28222202	      4.33377915	     66.76328645	    122.80229797	    105.45001300
      2.71666670	     -3.34966190	     -1.41648773	    -15.44580989	      1.53823664	      0.90991752	      0.15120159	      2.67777079	     11.42410524	     13.96596876	      7.74173725	      0.13511880	      5.94563445	    -12.80182366	     -7.49999987	     46.71540449	    -10.06884766	     -2.52243230	     20.09310791	      0.35069089	      8.04850904	     -0.28404222	     -7.49999987	     -5.20731782	      6.56633038	      1.71160540	     34.46391266	     -0.27808066	     66.74034927	    123.06190259	     96.63088870	     45.61916208	      4.40500717	     66.62064121	    122.19023425	    104.33485854
      2.73333330	     -3.48018382	     -1.32381831	    -15.33055066	      1.53807082	      0.90714551	      0.15204717	      3.49337898	     11.57688508	     13.59112867	      8.70218873	      0.15188185	      5.87884324	    -13.43348446	     -7.49999987	     47.54558306	     -9.96639202	     -2.48258815	     20.63200263	      0.36009638	      7.73066579	     -0.24337909	     -7.49999987	     -5.27196302	      6.39825799	      1.75461321	     35.06415707	     -0.47505376	     66.61319345	    123.85822010	     95.95255133	     46.30406853	      4.56204450	     66.89671969	    122.47340360	    103.59015590
      2.75000000	     -3.70796839	     -1.18138339	    -15.27773990	      1.53872615	      0.90689213	      0.15238006	      4.44257238	     11.70022168	     13.54603468	      9.75645635	      0.17028229	      5.49663138	    -14.68328640	     -7.49999987	     48.32129839	     -9.81460261	     -2.40282266	     20.96206533	      0.36585706	      7.37514302	     -0.26601254	     -7.49999987	     -5.10285289	      6.10956520	      2.21134964	     35.05820457	     -0.85027387	     66.28463850	    123.86836885	     96.42006771	     46.84010526	      5.03522312	     67.45083851	    121.92628213	    104.38723573
      2.76666670	     -3.54874273	     -1.29150670	    -15.07839263	      1.53473369	      0.91162735	      0.15503694	      4.95458727	     11.92510181	     12.95691290	     10.72927630	      0.18726120	      5.28937638	    -14.83010953	     -7.49999987	     48.49487981	     -9.67765533	     -2.17340277	     21.08632470	      0.36802579	      6.87824036	     -0.04140577	     -7.49999987	     -5.74720024	      6.08790124	      2.32720322	     34.88659391	     -0.99525502	     66.35983382	    123.41643620	     96.38886020	     46.72674513	      4.89419140	     67.62531641	    121.81914276	    104.30478442
      2.78333330	     -3.91398651	     -1.29184136	    -15.00743994	      1.53500809	      0.90589579	      0.15510812	      6.33592474	     12.26544214	     12.53625152	     12.29027597	      0.21450578	      5.52618669	    -15.43569448	     -7.49999987	     49.28083027	     -9.67394706	     -1.81978892	     21.16607804	      0.36941775	      6.24168724	     -0.55397125	     -7.49999987	     -5.53323116	      6.19125823	      2.42724321	     34.94526583	     -1.05906488	     66.67312098	    122.95656985	     96.68688689	     47.13843450	      4.68331551	     67.93141211	    122.08784041	    104.46717883
      2.80000000	     -4.13442175	     -1.29847829	    -14.81278448	      1.53487707	      0.90326815	      0.15564504	      7.31504052	     12.48128685	     11.98198837	     13.38741765	      0.23365452	      5.55427004	    -15.73459178	     -7.49999987	     49.84527210	     -9.55871594	     -1.41060312	     21.20550496	      0.37010588	      5.80128691	     -0.85195876	     -7.49999987	     -5.56174376	      6.22165773	      2.39178807	     34.88467584	     -1.37761369	     66.79995196	    122.93649272	     95.88887355	     47.40269649	      4.50132408	     67.86270180	    122.50665530	    103.48939471
      2.81666670	     -4.20694417	     -1.31869925	    -14.71077322	      1.53097666	      0.90488076	      0.15169804	      8.20179984	     12.63410169	     11.53668964	     14.57352211	      0.25435594	      5.48142766	    -16.30479510	     -7.49999987	     50.11063188	     -9.35920659	     -1.20325447	     21.10869097	      0.36841616	      5.31327364	     -1.04463493	     -7.49999987	     -5.94316963	      6.31983055	      2.31714926	     35.28026141	     -1.69648968	     66.87103215	    122.43660239	     96.12239389	     47.81961622	      4.32345437	     67.93008529	    122.53762197	    103.66162139
      2.83333330	     -4.14972001	     -1.45054000	    -14.45688312	      1.52669534	      0.90674654	      0.15378095	      8.99711053	     12.87572261	     10.89475356	     15.78098009	      0.27543006	      5.12323233	    -16.62846630	     -7.49999987	     50.26265649	     -9.22359086	     -0.93616749	     21.07867903	      0.36789235	      4.84284715	     -0.99183030	     -7.49999987	     -6.65267721	      6.39666846	      2.40958765	     35.57048200	     -1.86703681	     66.75861973	    121.94500693	     96.20668433	     47.97052688	      4.09060677	     68.09851978	    122.58016604	    103.73506099
      2.85000000	     -4.50724904	     -1.31144165	    -14.35825572	      1.52712745	      0.90359676	      0.15411720	     10.39581258	     13.02580386	     10.78321955	     17.29111298	      0.30178685	      4.99975602	    -17.72569175	     -7.49999987	     50.88985023	     -9.01779582	     -0.36862878	     21.04828378	      0.36736185	      4.13008983	     -2.02976559	     -7.49999987	     -6.65194457	      6.46341779	      1.66289124	     36.31630129	     -1.04057176	     67.46459928	    120.72242569	     97.32438376	     48.49297359	      3.51674603	     68.12414401	    123.45513142	    104.62821844
      2.86666670	     -4.42847378	     -1.44521642	    -14.11721017	      1.52293090	      0.90048883	      0.15036480	     11.40601179	     13.20708405	     10.06500141	     18.81502777	      0.32838418	      4.64668134	    -17.94937969	     -7.49999987	     51.06390108	     -8.88755211	      0.04631759	     20.97824130	      0.36613938	      3.75943892	     -1.82633655	     -7.49999987	     -7.33438338	      6.63365393	      1.51222172	     36.70612603	     -0.92580148	     67.31096380	    120.59580802	     97.38550295	     49.14645487	      3.80977723	     67.91836543	    123.60466580	    104.64829248
      2.88333330	     -4.82912410	     -1.47579779	    -13.98645100	      1.51927786	      0.89679598	      0.14721495	     13.31525231	     13.43445835	      9.39748594	     20.97304921	      0.36604876	      5.08717310	    -18.39967233	     -7.49999987	     51.92587859	     -8.77296234	      0.60284522	     21.12822879	      0.36875716	      3.12829234	     -2.41300954	     -7.49999987	     -7.54328365	      6.94132393	      1.19055423	     37.81752964	     -0.67844423	     67.39246770	    120.48229507	     96.60505025	     50.23943487	      3.66995906	     67.52825510	    124.02089385	    103.67808987
